<?xml version="1.0" encoding="UTF-8" standalone="no"?>
<!DOCTYPE svg PUBLIC "-//W3C//DTD SVG 1.1//EN"
 "http://www.w3.org/Graphics/SVG/1.1/DTD/svg11.dtd">
<!-- Generated by graphviz version 2.40.1 (20161225.0304)
 -->
<!-- Title: %3 Pages: 1 -->
<svg width="392pt" height="188pt"
 viewBox="0.00 0.00 391.74 188.00" xmlns="http://www.w3.org/2000/svg" xmlns:xlink="http://www.w3.org/1999/xlink">
<g id="graph0" class="graph" transform="scale(1 1) rotate(0) translate(4 184)">
<title>%3</title>
<polygon fill="#ffffff" stroke="transparent" points="-4,4 -4,-184 387.7364,-184 387.7364,4 -4,4"/>
<!-- player_emotion_face -->
<g id="node1" class="node">
<title>player_emotion_face</title>
<ellipse fill="none" stroke="#000000" cx="101.0444" cy="-162" rx="85.2851" ry="18"/>
<text text-anchor="middle" x="101.0444" y="-158.3" font-family="Times,serif" font-size="14.00" fill="#000000">player_emotion_face</text>
</g>
<!-- player_emotion -->
<g id="node4" class="node">
<title>player_emotion</title>
<ellipse fill="none" stroke="#000000" cx="198.0444" cy="-90" rx="66.0889" ry="18"/>
<text text-anchor="middle" x="198.0444" y="-86.3" font-family="Times,serif" font-size="14.00" fill="#000000">player_emotion</text>
</g>
<!-- player_emotion_face&#45;&gt;player_emotion -->
<g id="edge1" class="edge">
<title>player_emotion_face&#45;&gt;player_emotion</title>
<path fill="none" stroke="#000000" d="M124.5254,-144.5708C137.2478,-135.1273 153.1332,-123.3361 166.8793,-113.1328"/>
<polygon fill="#000000" stroke="#000000" points="169.1707,-115.7909 175.1144,-107.0202 164.9986,-110.1701 169.1707,-115.7909"/>
</g>
<!-- player_emotion_voice -->
<g id="node2" class="node">
<title>player_emotion_voice</title>
<ellipse fill="none" stroke="#000000" cx="294.0444" cy="-162" rx="89.8845" ry="18"/>
<text text-anchor="middle" x="294.0444" y="-158.3" font-family="Times,serif" font-size="14.00" fill="#000000">player_emotion_voice</text>
</g>
<!-- player_emotion_voice&#45;&gt;player_emotion -->
<g id="edge2" class="edge">
<title>player_emotion_voice&#45;&gt;player_emotion</title>
<path fill="none" stroke="#000000" d="M270.8055,-144.5708C258.2142,-135.1273 242.4926,-123.3361 228.8882,-113.1328"/>
<polygon fill="#000000" stroke="#000000" points="230.8381,-110.2203 220.7381,-107.0202 226.6381,-115.8203 230.8381,-110.2203"/>
</g>
<!-- player_offer -->
<g id="node3" class="node">
<title>player_offer</title>
<ellipse fill="none" stroke="#000000" cx="60.0444" cy="-90" rx="53.8905" ry="18"/>
<text text-anchor="middle" x="60.0444" y="-86.3" font-family="Times,serif" font-size="14.00" fill="#000000">player_offer</text>
</g>
<!-- robot_decision -->
<g id="node5" class="node">
<title>robot_decision</title>
<ellipse fill="none" stroke="#000000" cx="63.0444" cy="-18" rx="63.0888" ry="18"/>
<text text-anchor="middle" x="63.0444" y="-14.3" font-family="Times,serif" font-size="14.00" fill="#000000">robot_decision</text>
</g>
<!-- player_offer&#45;&gt;robot_decision -->
<g id="edge3" class="edge">
<title>player_offer&#45;&gt;robot_decision</title>
<path fill="none" stroke="#000000" d="M60.8014,-71.8314C61.1223,-64.131 61.5038,-54.9743 61.8604,-46.4166"/>
<polygon fill="#000000" stroke="#000000" points="65.3578,-46.5503 62.2772,-36.4133 58.3638,-46.2589 65.3578,-46.5503"/>
</g>
<!-- robot_offer -->
<g id="node6" class="node">
<title>robot_offer</title>
<ellipse fill="none" stroke="#000000" cx="196.0444" cy="-18" rx="50.8918" ry="18"/>
<text text-anchor="middle" x="196.0444" y="-14.3" font-family="Times,serif" font-size="14.00" fill="#000000">robot_offer</text>
</g>
<!-- player_offer&#45;&gt;robot_offer -->
<g id="edge4" class="edge">
<title>player_offer&#45;&gt;robot_offer</title>
<path fill="none" stroke="#000000" d="M88.8865,-74.7307C109.2177,-63.9671 136.6333,-49.453 158.6443,-37.8001"/>
<polygon fill="#000000" stroke="#000000" points="160.51,-40.7726 167.7102,-33.0004 157.2347,-34.5861 160.51,-40.7726"/>
</g>
<!-- player_emotion&#45;&gt;robot_decision -->
<g id="edge5" class="edge">
<title>player_emotion&#45;&gt;robot_decision</title>
<path fill="none" stroke="#000000" d="M167.7478,-73.8418C148.3804,-63.5125 123.0705,-50.0139 102.1868,-38.8759"/>
<polygon fill="#000000" stroke="#000000" points="103.7105,-35.722 93.2399,-34.1043 100.4164,-41.8985 103.7105,-35.722"/>
</g>
<!-- player_emotion&#45;&gt;robot_offer -->
<g id="edge6" class="edge">
<title>player_emotion&#45;&gt;robot_offer</title>
<path fill="none" stroke="#000000" d="M197.5397,-71.8314C197.3258,-64.131 197.0715,-54.9743 196.8338,-46.4166"/>
<polygon fill="#000000" stroke="#000000" points="200.3323,-46.3122 196.5559,-36.4133 193.335,-46.5066 200.3323,-46.3122"/>
</g>
</g>
</svg>
