<?xml version="1.0" encoding="UTF-8" standalone="no"?>
<!DOCTYPE svg PUBLIC "-//W3C//DTD SVG 1.1//EN"
 "http://www.w3.org/Graphics/SVG/1.1/DTD/svg11.dtd">
<!-- Generated by graphviz version 2.43.0 (0)
 -->
<!-- Title: %3 Pages: 1 -->
<svg width="387pt" height="260pt"
 viewBox="0.00 0.00 387.04 260.00" xmlns="http://www.w3.org/2000/svg" xmlns:xlink="http://www.w3.org/1999/xlink">
<g id="graph0" class="graph" transform="scale(1 1) rotate(0) translate(4 256)">
<title>%3</title>
<polygon fill="white" stroke="transparent" points="-4,4 -4,-256 383.04,-256 383.04,4 -4,4"/>
<!-- Smoker -->
<g id="node1" class="node">
<title>Smoker</title>
<ellipse fill="none" stroke="black" cx="106.49" cy="-234" rx="46.29" ry="18"/>
<text text-anchor="middle" x="106.49" y="-230.3" font-family="Times,serif" font-size="14.00">Smoker</text>
</g>
<!-- Bronchitis -->
<g id="node3" class="node">
<title>Bronchitis</title>
<ellipse fill="none" stroke="black" cx="58.49" cy="-90" rx="58.49" ry="18"/>
<text text-anchor="middle" x="58.49" y="-86.3" font-family="Times,serif" font-size="14.00">Bronchitis</text>
</g>
<!-- Smoker&#45;&gt;Bronchitis -->
<g id="edge2" class="edge">
<title>Smoker&#45;&gt;Bronchitis</title>
<path fill="none" stroke="black" d="M95.78,-216.41C89.64,-206.25 82.24,-192.78 77.49,-180 70.04,-159.91 65.15,-136.13 62.2,-118.21"/>
<polygon fill="black" stroke="black" points="65.63,-117.49 60.65,-108.14 58.71,-118.56 65.63,-117.49"/>
</g>
<!-- Lung cancer -->
<g id="node4" class="node">
<title>Lung cancer</title>
<ellipse fill="none" stroke="black" cx="154.49" cy="-162" rx="67.69" ry="18"/>
<text text-anchor="middle" x="154.49" y="-158.3" font-family="Times,serif" font-size="14.00">Lung cancer</text>
</g>
<!-- Smoker&#45;&gt;Lung cancer -->
<g id="edge3" class="edge">
<title>Smoker&#45;&gt;Lung cancer</title>
<path fill="none" stroke="black" d="M117.87,-216.41C123.58,-208.08 130.63,-197.8 137.02,-188.49"/>
<polygon fill="black" stroke="black" points="140.1,-190.18 142.87,-179.96 134.33,-186.22 140.1,-190.18"/>
</g>
<!-- Visit to Asia -->
<g id="node2" class="node">
<title>Visit to Asia</title>
<ellipse fill="none" stroke="black" cx="309.49" cy="-234" rx="66.09" ry="18"/>
<text text-anchor="middle" x="309.49" y="-230.3" font-family="Times,serif" font-size="14.00">Visit to Asia</text>
</g>
<!-- Tuberculosis -->
<g id="node5" class="node">
<title>Tuberculosis</title>
<ellipse fill="none" stroke="black" cx="309.49" cy="-162" rx="69.59" ry="18"/>
<text text-anchor="middle" x="309.49" y="-158.3" font-family="Times,serif" font-size="14.00">Tuberculosis</text>
</g>
<!-- Visit to Asia&#45;&gt;Tuberculosis -->
<g id="edge1" class="edge">
<title>Visit to Asia&#45;&gt;Tuberculosis</title>
<path fill="none" stroke="black" d="M309.49,-215.7C309.49,-207.98 309.49,-198.71 309.49,-190.11"/>
<polygon fill="black" stroke="black" points="312.99,-190.1 309.49,-180.1 305.99,-190.1 312.99,-190.1"/>
</g>
<!-- Dispnea -->
<g id="node7" class="node">
<title>Dispnea</title>
<ellipse fill="none" stroke="black" cx="61.49" cy="-18" rx="48.19" ry="18"/>
<text text-anchor="middle" x="61.49" y="-14.3" font-family="Times,serif" font-size="14.00">Dispnea</text>
</g>
<!-- Bronchitis&#45;&gt;Dispnea -->
<g id="edge8" class="edge">
<title>Bronchitis&#45;&gt;Dispnea</title>
<path fill="none" stroke="black" d="M59.24,-71.7C59.57,-63.98 59.96,-54.71 60.33,-46.11"/>
<polygon fill="black" stroke="black" points="63.83,-46.25 60.76,-36.1 56.84,-45.95 63.83,-46.25"/>
</g>
<!-- TB or cancer -->
<g id="node6" class="node">
<title>TB or cancer</title>
<ellipse fill="none" stroke="black" cx="204.49" cy="-90" rx="69.59" ry="18"/>
<text text-anchor="middle" x="204.49" y="-86.3" font-family="Times,serif" font-size="14.00">TB or cancer</text>
</g>
<!-- Lung cancer&#45;&gt;TB or cancer -->
<g id="edge5" class="edge">
<title>Lung cancer&#45;&gt;TB or cancer</title>
<path fill="none" stroke="black" d="M166.6,-144.05C172.62,-135.63 180.01,-125.28 186.66,-115.97"/>
<polygon fill="black" stroke="black" points="189.54,-117.96 192.5,-107.79 183.84,-113.89 189.54,-117.96"/>
</g>
<!-- Tuberculosis&#45;&gt;TB or cancer -->
<g id="edge4" class="edge">
<title>Tuberculosis&#45;&gt;TB or cancer</title>
<path fill="none" stroke="black" d="M285.41,-144.94C271,-135.34 252.51,-123.01 236.84,-112.56"/>
<polygon fill="black" stroke="black" points="238.73,-109.62 228.47,-106.98 234.85,-115.44 238.73,-109.62"/>
</g>
<!-- TB or cancer&#45;&gt;Dispnea -->
<g id="edge6" class="edge">
<title>TB or cancer&#45;&gt;Dispnea</title>
<path fill="none" stroke="black" d="M173.47,-73.81C151.52,-63.07 121.98,-48.61 98.76,-37.24"/>
<polygon fill="black" stroke="black" points="100.08,-33.99 89.56,-32.74 97,-40.28 100.08,-33.99"/>
</g>
<!-- Positive X&#45;ray -->
<g id="node8" class="node">
<title>Positive X&#45;ray</title>
<ellipse fill="none" stroke="black" cx="204.49" cy="-18" rx="74.99" ry="18"/>
<text text-anchor="middle" x="204.49" y="-14.3" font-family="Times,serif" font-size="14.00">Positive X&#45;ray</text>
</g>
<!-- TB or cancer&#45;&gt;Positive X&#45;ray -->
<g id="edge7" class="edge">
<title>TB or cancer&#45;&gt;Positive X&#45;ray</title>
<path fill="none" stroke="black" d="M204.49,-71.7C204.49,-63.98 204.49,-54.71 204.49,-46.11"/>
<polygon fill="black" stroke="black" points="207.99,-46.1 204.49,-36.1 200.99,-46.1 207.99,-46.1"/>
</g>
</g>
</svg>
