<?xml version="1.0" encoding="UTF-8" standalone="no"?>
<!DOCTYPE svg PUBLIC "-//W3C//DTD SVG 1.1//EN"
 "http://www.w3.org/Graphics/SVG/1.1/DTD/svg11.dtd">
<!-- Generated by graphviz version 2.43.0 (0)
 -->
<!-- Title: %3 Pages: 1 -->
<svg width="458pt" height="116pt"
 viewBox="0.00 0.00 457.78 116.00" xmlns="http://www.w3.org/2000/svg" xmlns:xlink="http://www.w3.org/1999/xlink">
<g id="graph0" class="graph" transform="scale(1 1) rotate(0) translate(4 112)">
<title>%3</title>
<polygon fill="white" stroke="transparent" points="-4,4 -4,-112 453.78,-112 453.78,4 -4,4"/>
<!-- player_emotion_face -->
<g id="node1" class="node">
<title>player_emotion_face</title>
<ellipse fill="none" stroke="black" cx="105.29" cy="-90" rx="105.08" ry="18"/>
<text text-anchor="middle" x="105.29" y="-86.3" font-family="Times,serif" font-size="14.00">player_emotion_face</text>
</g>
<!-- player_emotion -->
<g id="node3" class="node">
<title>player_emotion</title>
<ellipse fill="none" stroke="black" cx="222.29" cy="-18" rx="81.79" ry="18"/>
<text text-anchor="middle" x="222.29" y="-14.3" font-family="Times,serif" font-size="14.00">player_emotion</text>
</g>
<!-- player_emotion_face&#45;&gt;player_emotion -->
<g id="edge1" class="edge">
<title>player_emotion_face&#45;&gt;player_emotion</title>
<path fill="none" stroke="black" d="M132.72,-72.59C148.83,-62.95 169.36,-50.67 186.7,-40.3"/>
<polygon fill="black" stroke="black" points="188.65,-43.21 195.43,-35.07 185.06,-37.2 188.65,-43.21"/>
</g>
<!-- player_emotion_voice -->
<g id="node2" class="node">
<title>player_emotion_voice</title>
<ellipse fill="none" stroke="black" cx="339.29" cy="-90" rx="110.48" ry="18"/>
<text text-anchor="middle" x="339.29" y="-86.3" font-family="Times,serif" font-size="14.00">player_emotion_voice</text>
</g>
<!-- player_emotion_voice&#45;&gt;player_emotion -->
<g id="edge2" class="edge">
<title>player_emotion_voice&#45;&gt;player_emotion</title>
<path fill="none" stroke="black" d="M311.56,-72.41C295.57,-62.84 275.28,-50.7 258.08,-40.42"/>
<polygon fill="black" stroke="black" points="259.79,-37.36 249.42,-35.23 256.2,-43.37 259.79,-37.36"/>
</g>
</g>
</svg>
