<?xml version="1.0" encoding="UTF-8" standalone="no"?>
<!DOCTYPE svg PUBLIC "-//W3C//DTD SVG 1.1//EN"
 "http://www.w3.org/Graphics/SVG/1.1/DTD/svg11.dtd">
<!-- Generated by graphviz version 2.43.0 (0)
 -->
<!-- Title: %3 Pages: 1 -->
<svg width="462pt" height="188pt"
 viewBox="0.00 0.00 461.93 188.00" xmlns="http://www.w3.org/2000/svg" xmlns:xlink="http://www.w3.org/1999/xlink">
<g id="graph0" class="graph" transform="scale(1 1) rotate(0) translate(4 184)">
<title>%3</title>
<polygon fill="white" stroke="transparent" points="-4,4 -4,-184 457.93,-184 457.93,4 -4,4"/>
<!-- player_emotion_face -->
<g id="node1" class="node">
<title>player_emotion_face</title>
<ellipse fill="none" stroke="black" cx="105.29" cy="-162" rx="105.08" ry="18"/>
<text text-anchor="middle" x="105.29" y="-158.3" font-family="Times,serif" font-size="14.00">player_emotion_face</text>
</g>
<!-- player_emotion -->
<g id="node4" class="node">
<title>player_emotion</title>
<ellipse fill="none" stroke="black" cx="222.29" cy="-90" rx="81.79" ry="18"/>
<text text-anchor="middle" x="222.29" y="-86.3" font-family="Times,serif" font-size="14.00">player_emotion</text>
</g>
<!-- player_emotion_face&#45;&gt;player_emotion -->
<g id="edge1" class="edge">
<title>player_emotion_face&#45;&gt;player_emotion</title>
<path fill="none" stroke="black" d="M132.72,-144.59C148.83,-134.95 169.36,-122.67 186.7,-112.3"/>
<polygon fill="black" stroke="black" points="188.65,-115.21 195.43,-107.07 185.06,-109.2 188.65,-115.21"/>
</g>
<!-- player_emotion_voice -->
<g id="node2" class="node">
<title>player_emotion_voice</title>
<ellipse fill="none" stroke="black" cx="339.29" cy="-162" rx="110.48" ry="18"/>
<text text-anchor="middle" x="339.29" y="-158.3" font-family="Times,serif" font-size="14.00">player_emotion_voice</text>
</g>
<!-- player_emotion_voice&#45;&gt;player_emotion -->
<g id="edge2" class="edge">
<title>player_emotion_voice&#45;&gt;player_emotion</title>
<path fill="none" stroke="black" d="M311.56,-144.41C295.57,-134.84 275.28,-122.7 258.08,-112.42"/>
<polygon fill="black" stroke="black" points="259.79,-109.36 249.42,-107.23 256.2,-115.37 259.79,-109.36"/>
</g>
<!-- player_offer -->
<g id="node3" class="node">
<title>player_offer</title>
<ellipse fill="none" stroke="black" cx="388.29" cy="-90" rx="65.79" ry="18"/>
<text text-anchor="middle" x="388.29" y="-86.3" font-family="Times,serif" font-size="14.00">player_offer</text>
</g>
<!-- robot_decision -->
<g id="node5" class="node">
<title>robot_decision</title>
<ellipse fill="none" stroke="black" cx="305.29" cy="-18" rx="77.99" ry="18"/>
<text text-anchor="middle" x="305.29" y="-14.3" font-family="Times,serif" font-size="14.00">robot_decision</text>
</g>
<!-- player_offer&#45;&gt;robot_decision -->
<g id="edge3" class="edge">
<title>player_offer&#45;&gt;robot_decision</title>
<path fill="none" stroke="black" d="M369.04,-72.76C358.3,-63.71 344.74,-52.27 332.89,-42.28"/>
<polygon fill="black" stroke="black" points="334.91,-39.4 325.01,-35.63 330.4,-44.76 334.91,-39.4"/>
</g>
<!-- player_emotion&#45;&gt;robot_decision -->
<g id="edge4" class="edge">
<title>player_emotion&#45;&gt;robot_decision</title>
<path fill="none" stroke="black" d="M241.96,-72.41C252.71,-63.34 266.19,-51.97 277.95,-42.06"/>
<polygon fill="black" stroke="black" points="280.37,-44.59 285.76,-35.47 275.86,-39.24 280.37,-44.59"/>
</g>
</g>
</svg>
